<svg width="208" height="41" viewBox="0 0 208 41" fill="none" xmlns="http://www.w3.org/2000/svg">
<path fill-rule="evenodd" clip-rule="evenodd" d="M13.945 36.1485C13.8121 36.1473 13.6813 36.1157 13.5626 36.056C13.4438 35.9964 13.3403 35.9104 13.26 35.8045C13.0319 35.5013 12.8778 35.1489 12.81 34.7755C12.7016 34.3002 12.6181 33.8196 12.56 33.3355C12.4909 32.7122 12.4555 32.0856 12.454 31.4585C12.4334 30.0806 12.4381 28.7023 12.468 27.3245C12.486 26.4785 12.494 25.8185 12.494 25.3425V9.59053C12.494 8.81453 12.499 8.22453 12.508 7.81953C12.517 7.41453 12.548 6.95653 12.599 6.44553C12.629 6.06553 12.695 5.68953 12.798 5.32253C12.898 5.03953 13.031 4.76953 13.193 4.51653C13.343 4.25153 13.561 4.03253 13.826 3.88253C14.134 3.72853 14.451 3.59253 14.775 3.47253C15.1925 3.31734 15.6252 3.20673 16.066 3.14253C16.6403 3.05869 17.2165 2.988 17.794 2.93053V1.47553L17.344 1.02553H1.422L1 1.47553V2.71753C3.672 2.87653 5.166 3.63453 5.482 4.99053C5.666 6.13553 5.754 7.29353 5.746 8.45253V32.5795C5.79021 33.8328 5.73705 35.0875 5.587 36.3325C5.514 36.5265 5.407 36.7045 5.271 36.8605C5.06737 37.1041 4.85212 37.3377 4.626 37.5605C4.44685 37.7336 4.27535 37.9145 4.112 38.1025V39.0275C17.699 39.0275 26.109 39.1155 29.342 39.2925L30.477 35.4605L29.765 34.9575C24.515 35.6185 19.235 36.0155 13.946 36.1475L13.945 36.1485ZM39.201 25.1025C39.1494 25.117 39.0965 25.1257 39.043 25.1285C38.78 25.1285 38.648 25.0325 38.648 24.8385C38.649 23.9625 38.715 23.0875 38.846 22.2215C38.994 21.2775 39.241 20.3515 39.584 19.4605C39.9145 18.5571 40.3678 17.7034 40.931 16.9235C41.5279 16.1301 42.3031 15.4883 43.1939 15.0498C44.0847 14.6114 45.0662 14.3886 46.059 14.3995C46.7755 14.3598 47.4899 14.507 48.1323 14.8268C48.7747 15.1466 49.3228 15.6279 49.723 16.2235C50.5542 17.4554 50.987 18.9127 50.963 20.3985C50.9595 20.6709 50.873 20.9357 50.715 21.1576C50.5571 21.3795 50.3352 21.548 50.079 21.6405C48.6353 22.2223 47.1612 22.7254 45.663 23.1475C43.5559 23.7676 41.4558 24.4109 39.363 25.0775C39.3082 25.0798 39.2539 25.0882 39.201 25.1025ZM54.861 33.3475C51.696 35.2675 48.963 36.2275 46.663 36.2275C45.1049 36.2614 43.5749 35.8087 42.286 34.9325C41.087 34.1279 40.1336 33.0077 39.531 31.6955C38.9377 30.3797 38.6364 28.9509 38.648 27.5075C50.143 23.9315 55.943 22.1425 56.048 22.1425C56.5045 22.0491 56.9124 21.7952 57.1977 21.4268C57.483 21.0584 57.6268 20.5999 57.603 20.1345C57.6343 18.8372 57.3301 17.5538 56.72 16.4085C56.1628 15.3842 55.3382 14.5302 54.334 13.9375C53.3208 13.3428 52.2229 12.9061 51.078 12.6425C49.8362 12.3614 48.5662 12.2238 47.293 12.2325C45.009 12.1971 42.744 12.6524 40.651 13.5675C38.8056 14.3646 37.1751 15.5873 35.893 17.1355C34.6842 18.6326 33.7513 20.3327 33.138 22.1565C32.502 24.0331 32.181 26.0021 32.188 27.9835C32.188 32.0535 33.288 35.1015 35.484 37.1275C37.47 38.9775 40.274 39.9015 43.894 39.9015C45.9696 39.8802 48.0126 39.3832 49.866 38.4485C52.0979 37.3369 54.2359 36.046 56.259 34.5885L55.682 33.5605L54.861 33.3475ZM90.37 5.48253C89.6636 3.63731 88.2763 2.13335 86.494 1.28053C84.2862 0.351677 81.9014 -0.0811772 79.508 0.0125284C77.7614 0.00250957 76.0206 0.215566 74.328 0.646528C72.7535 1.04744 71.2504 1.68935 69.872 2.54953C68.5219 3.40067 67.4177 4.58999 66.669 5.99953C65.8563 7.5413 65.4479 9.264 65.482 11.0065C65.4811 12.2539 65.7842 13.4827 66.365 14.5865C66.9198 15.679 67.6706 16.6603 68.58 17.4815C69.558 18.3442 70.5974 19.1346 71.69 19.8465C72.7867 20.5772 73.9223 21.2475 75.092 21.8545C76.1916 22.4197 77.2731 23.0194 78.335 23.6525C79.215 24.1505 80.041 24.7395 80.8 25.4095C82.75 27.2245 83.726 28.9505 83.726 30.5895C83.7224 31.4601 83.5404 32.3208 83.1913 33.1183C82.8421 33.9158 82.3332 34.6333 81.696 35.2265C81.0634 35.8777 80.3046 36.3928 79.466 36.7405C78.6274 37.0882 77.7267 37.2611 76.819 37.2485C75.7576 37.279 74.7033 37.0662 73.7369 36.6265C72.7704 36.1868 71.9173 35.5317 71.243 34.7115C69.8437 33.1092 69.0796 31.0498 69.095 28.9225L68.068 28.5525L62.822 34.4455C64.0209 36.1807 65.6464 37.5779 67.542 38.5025C69.4694 39.4481 71.5902 39.9325 73.737 39.9175C75.6958 39.9077 77.6421 39.6043 79.511 39.0175C81.3905 38.4517 83.1827 37.6289 84.837 36.5725C86.4096 35.5683 87.7451 34.2341 88.751 32.6625C89.7369 31.1681 90.2639 29.4178 90.267 27.6275C90.2749 26.6668 90.1054 25.7128 89.767 24.8135C89.454 23.9785 89.0185 23.1946 88.475 22.4875C87.8352 21.7026 87.0948 21.0053 86.273 20.4135C85.3751 19.7364 84.4374 19.1136 83.465 18.5485C82.3011 17.8854 81.1235 17.2466 79.933 16.6325C79.1029 16.2301 78.2852 15.8026 77.481 15.3505C76.7205 14.9061 75.9804 14.4276 75.263 13.9165C74.5275 13.4123 73.8553 12.8214 73.261 12.1565C72.7387 11.536 72.312 10.841 71.995 10.0945C71.6431 9.29068 71.4636 8.42201 71.468 7.54453C71.4518 6.82688 71.5797 6.11327 71.8443 5.44595C72.1088 4.77863 72.5045 4.17117 73.008 3.65953C73.5401 3.12768 74.1769 2.71217 74.8781 2.43932C75.5792 2.16648 76.3293 2.04226 77.081 2.07453C78.0121 2.03432 78.9405 2.20058 79.7997 2.56139C80.659 2.92221 81.4278 3.46864 82.051 4.16153C83.2997 5.57484 84.0863 7.33631 84.305 9.20953L85.228 9.49953L90.37 5.48253ZM116.008 15.6175C115.537 14.7927 114.855 14.1085 114.031 13.6355C113.216 13.1697 112.336 12.827 111.421 12.6185C110.439 12.4007 109.435 12.2944 108.429 12.3015C106.51 12.2745 104.602 12.6015 102.8 13.2665C101.254 13.8279 99.8378 14.6952 98.635 15.8165C97.5172 16.8994 96.5902 18.1632 95.893 19.5545C95.1763 20.9542 94.6487 22.4429 94.324 23.9815C94.0037 25.5377 93.8449 27.1228 93.85 28.7115C93.844 30.0615 94.035 31.4055 94.416 32.6995C94.786 33.9525 95.361 35.1355 96.116 36.2015C96.9121 37.301 97.9799 38.1752 99.215 38.7385C100.633 39.3865 102.178 39.7075 103.736 39.6765C108.675 39.6765 113.315 37.5005 117.656 33.1495L117.129 32.3825L116.47 32.2245C113.254 34.7085 110.283 35.9505 107.559 35.9505C106.539 35.967 105.531 35.7357 104.62 35.2765C103.794 34.8666 103.076 34.2698 102.521 33.5335C101.97 32.7767 101.522 31.9501 101.189 31.0755C100.843 30.2022 100.591 29.2944 100.438 28.3675C100.298 27.4935 100.228 26.6095 100.227 25.7245C100.233 24.5995 100.33 23.4775 100.517 22.3685C100.724 21.1335 101.033 19.9185 101.44 18.7345C101.81 17.5774 102.452 16.526 103.312 15.6685C103.691 15.2848 104.142 14.9808 104.64 14.7743C105.139 14.5679 105.673 14.4632 106.212 14.4665C106.932 14.4268 107.65 14.5888 108.283 14.9344C108.916 15.2799 109.441 15.7953 109.797 16.4225C110.612 17.8912 111.013 19.5537 110.957 21.2325L111.88 21.6025L116.863 18.6435C116.822 17.5813 116.529 16.5441 116.008 15.6175ZM125.671 23.4795C125.805 22.4415 126.039 21.4195 126.37 20.4275C126.673 19.4625 127.103 18.5435 127.648 17.6925C128.172 16.9042 128.872 16.2483 129.692 15.7765C130.577 15.2658 131.584 15.0055 132.605 15.0235C133.713 14.9953 134.806 15.284 135.755 15.8555C136.637 16.4048 137.346 17.193 137.798 18.1285C138.275 19.0955 138.62 20.1215 138.825 21.1805C139.042 22.3205 139.149 23.4805 139.142 24.6425C139.142 25.6995 139.133 26.5805 139.115 27.2845C139.087 28.1326 139.026 28.9793 138.931 29.8225C138.853 30.6525 138.708 31.4735 138.496 32.2795C138.289 32.9895 138.02 33.6795 137.692 34.3415C137.39 34.9968 136.954 35.5817 136.413 36.0585C135.854 36.515 135.221 36.8725 134.541 37.1155C133.717 37.4104 132.846 37.5537 131.971 37.5385C131.007 37.5503 130.063 37.2639 129.268 36.7185C128.493 36.1991 127.848 35.5074 127.384 34.6975C126.897 33.8259 126.516 32.8989 126.25 31.9365C125.97 30.9895 125.767 30.0213 125.643 29.0415C125.541 28.1953 125.488 27.3439 125.485 26.4915C125.484 25.4846 125.547 24.4787 125.671 23.4795ZM122.402 37.1425C124.317 38.8865 127.358 39.7585 131.524 39.7585C133.064 39.7685 134.6 39.5915 136.098 39.2295C137.507 38.8792 138.85 38.3038 140.076 37.5255C141.308 36.7482 142.385 35.7489 143.253 34.5785C144.202 33.2514 144.907 31.7659 145.336 30.1915C145.868 28.2823 146.125 26.3072 146.101 24.3255C146.152 22.73 145.856 21.1424 145.232 19.6729C144.608 18.2034 143.672 16.8872 142.489 15.8155C140.291 13.8435 137.101 12.8565 132.919 12.8565C128.736 12.8565 125.291 14.1515 122.584 16.7415C121.255 17.9976 120.206 19.5203 119.507 21.2098C118.807 22.8993 118.472 24.7176 118.524 26.5455C118.524 31.2675 119.815 34.7995 122.399 37.1425H122.402ZM163.66 16.2125C165.066 16.2125 166.068 16.4945 166.666 17.0585C167.223 17.7385 167.575 18.5645 167.68 19.4385C167.901 20.4685 168.038 21.5165 168.089 22.5695C168.124 23.4945 168.142 24.6885 168.142 26.1505C168.141 28.0489 168.128 29.9473 168.103 31.8455C168.094 32.4175 168.098 33.0915 168.115 33.8675C168.12 34.4455 168.155 35.0235 168.221 35.5975C168.274 35.9775 168.344 36.3915 168.432 36.8395C168.493 37.2155 168.618 37.5765 168.801 37.9095C168.959 38.1745 169.153 38.4155 169.379 38.6245C170.17 39.3422 171.211 39.7213 172.278 39.6805C173.597 39.6805 175.108 39.0105 176.813 37.6725C178.236 36.4892 179.591 35.2272 180.873 33.8925L180.267 32.9925H179.634C178.603 33.8197 177.342 34.309 176.023 34.3935C175.744 34.4095 175.464 34.3686 175.201 34.2732C174.938 34.1778 174.697 34.0299 174.493 33.8385C174.311 33.6947 174.155 33.5208 174.031 33.3245C173.886 32.9788 173.793 32.6135 173.755 32.2405C173.654 31.4829 173.61 30.7188 173.623 29.9545C173.623 29.3735 173.654 28.4345 173.715 27.1405C173.764 26.2206 173.795 25.2997 173.808 24.3785V22.7925C173.825 21.0835 173.821 19.8995 173.795 19.2375C173.742 18.3344 173.641 17.4347 173.491 16.5425C173.425 15.7013 173.144 14.8912 172.674 14.1905C172.21 13.6871 171.655 13.275 171.039 12.9755C170.202 12.5706 169.279 12.3753 168.35 12.4065C165.257 12.4065 161.671 13.6755 157.594 16.2125L156.961 15.9745C156.927 15.0028 156.611 14.062 156.052 13.2665C155.533 12.5865 154.641 12.2485 153.376 12.2485C152.618 12.2581 151.866 12.3873 151.148 12.6315C150.313 12.9115 149.516 13.2935 148.774 13.7675C147.974 14.2705 147.28 14.7375 146.691 15.1685C146.102 15.5995 145.421 16.1235 144.648 16.7405L145.623 18.0355C145.802 17.9195 145.983 17.8052 146.164 17.6925C146.471 17.4985 146.739 17.3405 146.968 17.2165C147.196 17.0935 147.469 16.9485 147.785 16.7805C148.068 16.6265 148.364 16.4975 148.669 16.3945C148.902 16.3145 149.146 16.2695 149.393 16.2625C149.698 16.2555 149.999 16.3325 150.263 16.4875C150.531 16.6645 150.733 16.9245 150.841 17.2275C150.973 17.5475 151.087 17.8725 151.183 18.2045C151.291 18.6515 151.353 19.1075 151.368 19.5665C151.404 20.1665 151.425 20.6505 151.432 21.0195C151.44 21.3885 151.444 21.9435 151.445 22.6845V23.1345C151.445 24.8605 151.313 30.1455 151.05 38.9895L151.709 39.3595L157.641 37.6415C157.465 36.8845 157.333 34.4975 157.245 30.4815C157.158 26.5531 157.115 22.6239 157.117 18.6945C160.175 17.0385 162.354 16.2105 163.655 16.2105L163.66 16.2125ZM189.233 25.2225C189.182 25.2379 189.129 25.2473 189.075 25.2505C188.812 25.2505 188.68 25.1535 188.679 24.9605C188.68 24.0835 188.746 23.2095 188.878 22.3435C189.026 21.3995 189.273 20.4735 189.615 19.5815C189.946 18.6785 190.398 17.8245 190.96 17.0445C191.557 16.2509 192.332 15.6089 193.223 15.1704C194.114 14.7319 195.095 14.5093 196.088 14.5205C196.804 14.4807 197.519 14.6279 198.161 14.9477C198.804 15.2675 199.352 15.7488 199.752 16.3445C200.583 17.5763 201.016 19.0337 200.991 20.5195C200.987 20.7917 200.901 21.0562 200.743 21.278C200.585 21.4998 200.364 21.6685 200.108 21.7615C198.665 22.343 197.191 22.8461 195.693 23.2685C193.586 23.8884 191.485 24.5318 189.392 25.1985C189.339 25.2014 189.286 25.2098 189.234 25.2235L189.233 25.2225ZM204.893 33.4685C201.728 35.3895 198.995 36.3495 196.694 36.3485C195.136 36.3821 193.606 35.9299 192.317 35.0545C191.118 34.2497 190.165 33.1295 189.563 31.8175C188.969 30.5011 188.668 29.0717 188.679 27.6275C200.174 24.0525 205.974 22.2645 206.08 22.2645C206.536 22.1707 206.944 21.9165 207.23 21.548C207.515 21.1795 207.659 20.721 207.635 20.2555C207.666 18.9582 207.362 17.6749 206.752 16.5295C206.195 15.5052 205.37 14.6512 204.366 14.0585C203.353 13.4641 202.255 13.0274 201.11 12.7635C199.868 12.4823 198.598 12.3447 197.324 12.3535C195.041 12.3183 192.776 12.7736 190.684 13.6885C188.839 14.4856 187.208 15.7083 185.926 17.2565C184.717 18.7533 183.784 20.4536 183.171 22.2775C182.535 24.1541 182.214 26.1231 182.222 28.1045C182.222 32.1745 183.32 35.2215 185.517 37.2485C187.503 39.0985 190.306 40.0225 193.927 40.0225C196.003 40.0012 198.046 39.5041 199.899 38.5695C202.131 37.4577 204.269 36.1672 206.292 34.7105L205.715 33.6815L204.893 33.4685Z" fill="#9C9C9C"/>
</svg>
