<svg xmlns="http://www.w3.org/2000/svg" width="32" height="32" fill="none"><g clip-path="url(#a)"><circle cx="16" cy="16" r="16" fill="#fff"/><path fill="url(#b)" d="M23.583 13.375h-.888l-1.842-4.973a2.139 2.139 0 0 0-.793-1.015A2.205 2.205 0 0 0 18.817 7h-1.734C16.488 7 16 7.478 16 8.063c0 .584.488 1.062 1.083 1.062h1.734l1.581 4.25h-5.21l-.39-1.063h.097c.596 0 1.083-.478 1.083-1.062 0-.584-.487-1.063-1.083-1.063h-3.228c-.596 0-1.084.479-1.084 1.063s.488 1.063 1.084 1.063h.812l1.972 5.312h-.726c-.477-2.37-2.502-4.123-5.037-4.24C5.654 13.238 3 15.714 3 18.689S5.383 24 8.417 24c2.665 0 4.82-1.796 5.308-4.25h4.55c.477 2.37 2.503 4.122 5.038 4.24 3.033.138 5.687-2.327 5.687-5.313 0-2.964-2.383-5.302-5.417-5.302ZM9.5 19.75h1.972c-.455 1.307-1.734 2.21-3.272 2.114-1.614-.095-2.957-1.434-3.033-3.028-.076-1.86 1.376-3.336 3.25-3.336 1.44 0 2.621.882 3.055 2.125H9.5c-.596 0-1.083.478-1.083 1.063 0 .584.487 1.062 1.083 1.062Zm8.775-2.125h-1.517l-.79-2.125h3.282a4.984 4.984 0 0 0-.975 2.125Zm5.178 4.25c-1.668-.064-3.076-1.456-3.12-3.102a3.143 3.143 0 0 1 1.138-2.508l.671 1.806c.206.553.824.84 1.387.638.564-.202.856-.808.65-1.36l-.682-1.838.01-.011c.435-.014.868.057 1.273.211.405.155.774.388 1.085.685.31.298.557.655.723 1.049.167.393.25.816.245 1.242 0 1.828-1.495 3.252-3.38 3.188Z"/></g><defs><linearGradient id="b" x1="16" x2="16" y1="7" y2="24" gradientUnits="userSpaceOnUse"><stop stop-color="#FFB60D"/><stop offset="1" stop-color="#E59317"/></linearGradient><clipPath id="a"><path fill="#fff" d="M0 0h32v32H0z"/></clipPath></defs></svg>