<svg width="140" height="38" viewBox="0 0 140 38" fill="none" xmlns="http://www.w3.org/2000/svg">
<path d="M11.394 23.737V28.823C11.394 31.366 10.274 32.283 8.494 32.283C6.714 32.283 5.595 31.366 5.595 28.823V9.596C5.595 7.053 6.715 6.086 8.495 6.086C10.275 6.086 11.394 7.053 11.394 9.596V13.411H16.684V9.952C16.684 4.255 13.835 1 8.342 1C2.848 1 0 4.255 0 9.952V28.467C0 34.164 2.848 37.42 8.342 37.42C13.835 37.42 16.684 34.164 16.684 28.467V23.737H11.394ZM32.503 1.407L38.2 37.013H32.554L31.587 30.553H24.721L23.754 37.013H18.617L24.314 1.407H32.503ZM28.078 7.714L25.433 25.721H30.824L28.18 7.713H28.079L28.078 7.714ZM58.19 37.013H52.493C52.188 36.097 51.984 35.537 51.984 32.638V27.043C51.984 23.737 50.865 22.516 48.322 22.516H46.389V37.013H40.794V1.407H49.238C55.036 1.407 57.528 4.103 57.528 9.597V12.394C57.528 16.056 56.358 18.396 53.866 19.566C56.664 20.837 57.579 23.482 57.579 27.196V32.689C57.579 34.419 57.631 35.69 58.19 37.013ZM49.085 6.493H46.389V17.43H48.576C50.662 17.43 51.933 16.515 51.933 13.666V10.156C51.933 7.613 51.069 6.493 49.085 6.493ZM75.242 1.407L80.939 37.013H75.293L74.327 30.553H67.46L66.494 37.013H61.356L67.053 1.407H75.242ZM70.817 7.714L68.172 25.721H73.564L70.919 7.713H70.817V7.714ZM86.115 1.407H80.469L85.962 37.013H94.304L99.797 1.407H94.66L90.438 30.45H90.336L86.115 1.407ZM113.213 1.407L118.91 37.013H113.264L112.298 30.553H105.431L104.464 37.013H99.327L105.024 1.407H113.213ZM108.788 7.714L106.143 25.721H111.535L108.89 7.713H108.788V7.714ZM134.252 37.013H140V1.407H135.015V22.719H134.913L129.267 1.407H122.248V37.013H127.284V11.223H127.385L134.252 37.013Z" fill="#9C9C9C"/>
</svg>
