<svg width="152" height="39" viewBox="0 0 152 39" fill="none" xmlns="http://www.w3.org/2000/svg">
<path fill-rule="evenodd" clip-rule="evenodd" d="M23.024 16.8496H25.741C28.549 16.8496 30.066 20.1416 28.237 22.2746L25.577 25.3746C25.8651 27.2132 26.836 28.8755 28.296 30.0296C29.7574 31.1843 31.6 31.7463 33.457 31.6036C35.3141 31.4609 37.0492 30.624 38.317 29.2596C39.5838 27.8957 40.2891 26.104 40.292 24.2426C40.2918 23.9188 40.3554 23.5981 40.4792 23.2989C40.6031 22.9997 40.7848 22.7279 41.0138 22.499C41.2429 22.2701 41.5149 22.0887 41.8142 21.9651C42.1135 21.8414 42.4342 21.7781 42.758 21.7786C43.4117 21.7789 44.0386 22.0385 44.5011 22.5004C44.9636 22.9624 45.224 23.5889 45.225 24.2426C45.2248 26.8285 44.4103 29.3487 42.897 31.4456C41.764 33.0124 40.2789 34.2912 38.5612 35.1791C36.8436 36.0669 34.9414 36.539 33.008 36.5573C31.0745 36.5756 29.1638 36.1396 27.4297 35.2844C25.6956 34.4292 24.1865 33.1787 23.024 31.6336C21.8616 33.1787 20.3525 34.4292 18.6184 35.2844C16.8842 36.1396 14.9735 36.5756 13.0401 36.5573C11.1066 36.539 9.20446 36.0669 7.48682 35.1791C5.76919 34.2912 4.28405 33.0124 3.15102 31.4456C1.63737 29.3488 0.822497 26.8286 0.822022 24.2426C0.821759 23.9187 0.885411 23.5979 1.00933 23.2987C1.13325 22.9994 1.31501 22.7275 1.54418 22.4986C1.77336 22.2698 2.04545 22.0883 2.34486 21.9648C2.64427 21.8412 2.96512 21.778 3.28902 21.7786C3.94271 21.7789 4.56959 22.0385 5.0321 22.5004C5.49461 22.9624 5.75496 23.5889 5.75602 24.2426C5.75325 26.107 6.45555 27.9034 7.72202 29.2716C8.66766 30.293 9.88206 31.0272 11.2259 31.3898C12.5698 31.7525 13.9886 31.729 15.3198 31.3221C16.6509 30.9151 17.8403 30.1412 18.7516 29.089C19.6629 28.0369 20.2592 26.7492 20.472 25.3736L17.81 22.2736C15.982 20.1416 17.498 16.8506 20.31 16.8506L23.024 16.8496Z" fill="#9C9C9C"/>
<path d="M34.535 10.2798C35.1826 10.2804 35.8239 10.1533 36.4224 9.9059C37.0209 9.6585 37.5647 9.29562 38.0229 8.83799C38.4811 8.38035 38.8447 7.83693 39.0928 7.23877C39.3409 6.6406 39.4687 5.99942 39.469 5.35183C39.4687 4.70424 39.3409 4.06306 39.0928 3.46489C38.8447 2.86673 38.4811 2.3233 38.0229 1.86567C37.5647 1.40804 37.0209 1.04516 36.4224 0.797764C35.8239 0.550368 35.1826 0.423304 34.535 0.42383C33.8875 0.423436 33.2463 0.550597 32.6479 0.798051C32.0496 1.04551 31.5058 1.40841 31.0477 1.86603C30.5896 2.32365 30.2262 2.86702 29.9781 3.46512C29.7301 4.06322 29.6023 4.70433 29.602 5.35183C29.6023 5.99933 29.7301 6.64044 29.9781 7.23854C30.2262 7.83664 30.5896 8.38001 31.0477 8.83763C31.5058 9.29525 32.0496 9.65815 32.6479 9.90561C33.2463 10.1531 33.8875 10.2802 34.535 10.2798ZM11.512 10.2798C12.1595 10.2802 12.8007 10.1531 13.3991 9.90561C13.9974 9.65815 14.5412 9.29525 14.9993 8.83763C15.4574 8.38001 15.8208 7.83664 16.0689 7.23854C16.3169 6.64044 16.4447 5.99933 16.445 5.35183C16.4447 4.70433 16.3169 4.06322 16.0689 3.46512C15.8208 2.86702 15.4574 2.32365 14.9993 1.86603C14.5412 1.40841 13.9974 1.04551 13.3991 0.798051C12.8007 0.550597 12.1595 0.423436 11.512 0.42383C10.8644 0.423304 10.2231 0.550368 9.62461 0.797764C9.02614 1.04516 8.48228 1.40804 8.02409 1.86567C7.5659 2.3233 7.20236 2.86673 6.95423 3.46489C6.70611 4.06306 6.57827 4.70424 6.578 5.35183C6.57827 5.99942 6.70611 6.6406 6.95423 7.23877C7.20236 7.83693 7.5659 8.38035 8.02409 8.83799C8.48228 9.29562 9.02614 9.6585 9.62461 9.9059C10.2231 10.1533 10.8644 10.2804 11.512 10.2798ZM79.445 1.62783C80.205 1.62783 80.829 1.84483 81.317 2.27883C81.805 2.71283 82.049 3.28283 82.049 3.98883V28.3238C82.049 29.0568 81.819 29.6398 81.357 30.0738C80.897 30.5078 80.286 30.7248 79.527 30.7248C78.767 30.7248 78.157 30.5078 77.695 30.0748C77.234 29.6398 77.003 29.0568 77.003 28.3248V27.3068C76.406 28.4188 75.538 29.2868 74.398 29.9108C73.286 30.5348 72.011 30.8468 70.573 30.8468C68.863 30.8468 67.331 30.4128 65.975 29.5448C64.645 28.6768 63.601 27.4558 62.841 25.8818C62.108 24.2818 61.742 22.4508 61.742 20.3888C61.742 18.3268 62.108 16.5228 62.841 14.9758C63.601 13.4298 64.645 12.2358 65.975 11.3948C67.304 10.5538 68.837 10.1328 70.573 10.1328C72.011 10.1328 73.286 10.4318 74.399 11.0288C75.4835 11.5986 76.3752 12.4764 76.962 13.5518V3.90683C76.962 3.22883 77.179 2.68583 77.613 2.27883C78.075 1.84483 78.685 1.62783 79.445 1.62783ZM71.916 26.8998C73.544 26.8998 74.792 26.3438 75.66 25.2308C76.555 24.1188 77.003 22.5308 77.003 20.4698C77.003 18.4078 76.555 16.8338 75.66 15.7498C74.792 14.6368 73.558 14.0798 71.957 14.0798C70.329 14.0798 69.067 14.6228 68.172 15.7088C67.277 16.7938 66.829 18.3538 66.829 20.3888C66.829 22.4508 67.277 24.0508 68.172 25.1908C69.067 26.3308 70.315 26.8998 71.916 26.8998ZM96.357 30.8468C94.323 30.8468 92.532 30.4268 90.986 29.5858C89.466 28.7448 88.286 27.5378 87.445 25.9638C86.604 24.3898 86.183 22.5588 86.183 20.4698C86.183 18.3808 86.603 16.5628 87.445 15.0168C88.286 13.4428 89.466 12.2358 90.985 11.3948C92.532 10.5538 94.323 10.1328 96.357 10.1328C98.392 10.1328 100.169 10.5528 101.688 11.3948C103.211 12.2115 104.447 13.4757 105.229 15.0168C106.07 16.5628 106.491 18.3808 106.491 20.4698C106.491 22.5598 106.07 24.3898 105.229 25.9638C104.447 27.505 103.211 28.7692 101.688 29.5858C100.169 30.4258 98.391 30.8468 96.357 30.8468ZM96.317 26.8998C97.972 26.8998 99.233 26.3568 100.101 25.2718C100.97 24.1868 101.404 22.5858 101.404 20.4698C101.404 18.3808 100.97 16.7938 100.101 15.7088C99.233 14.5958 97.985 14.0398 96.357 14.0398C94.73 14.0398 93.467 14.5958 92.573 15.7088C91.705 16.7938 91.27 18.3808 91.27 20.4698C91.27 22.5858 91.704 24.1868 92.573 25.2718C93.441 26.3568 94.689 26.8998 96.317 26.8998ZM127.538 10.2148C128.298 10.2148 128.908 10.4318 129.369 10.8648C129.831 11.2998 130.061 11.8828 130.061 12.6148V28.6898C130.061 31.8098 129.193 34.1698 127.457 35.7718C125.72 37.3718 123.157 38.1718 119.765 38.1718C116.808 38.1718 114.339 37.6168 112.359 36.5038C111.355 35.9068 110.853 35.1878 110.853 34.3468C110.853 33.7498 110.989 33.2758 111.26 32.9228C111.558 32.5698 111.938 32.3928 112.399 32.3928C112.644 32.3928 112.942 32.4478 113.295 32.5568C113.647 32.6918 114.014 32.8418 114.393 33.0038C115.243 33.3654 116.112 33.6779 116.998 33.9398C117.785 34.1568 118.68 34.2658 119.684 34.2658C123.238 34.2658 125.015 32.5298 125.015 29.0558V26.4518C124.418 27.5648 123.55 28.4318 122.411 29.0568C121.271 29.6538 119.969 29.9518 118.504 29.9518C116.767 29.9518 115.221 29.5448 113.864 28.7318C112.535 27.8898 111.491 26.7238 110.731 25.2318C109.971 23.7388 109.591 22.0168 109.591 20.0628C109.591 18.1098 109.958 16.3868 110.69 14.8948C111.45 13.3748 112.508 12.2088 113.864 11.3948C115.221 10.5538 116.767 10.1328 118.504 10.1328C119.969 10.1328 121.271 10.4448 122.411 11.0688C123.521 11.637 124.43 12.5319 125.015 13.6328V12.5748C125.015 11.8698 125.246 11.2998 125.707 10.8648C126.168 10.4318 126.779 10.2148 127.538 10.2148ZM119.847 26.0048C121.475 26.0048 122.736 25.4748 123.631 24.4178C124.554 23.3588 125.015 21.9078 125.015 20.0628C125.015 18.1908 124.554 16.7258 123.631 15.6678C122.736 14.6098 121.475 14.0808 119.847 14.0808C118.246 14.0808 116.984 14.6098 116.062 15.6678C115.14 16.7258 114.678 18.1908 114.678 20.0628C114.678 21.9078 115.14 23.3588 116.062 24.4178C116.984 25.4758 118.246 26.0048 119.847 26.0048ZM142.533 30.8468C139.576 30.8468 137.189 30.2638 135.371 29.0968C134.503 28.5818 134.069 27.8488 134.069 26.8998C134.069 26.3568 134.218 25.9228 134.516 25.5978C134.815 25.2448 135.181 25.0678 135.615 25.0678C136.076 25.0678 136.714 25.2858 137.528 25.7198C138.396 26.1268 139.183 26.4388 139.888 26.6558C140.621 26.8728 141.543 26.9808 142.655 26.9808C143.795 26.9808 144.677 26.7908 145.301 26.4108C145.952 26.0308 146.277 25.5028 146.277 24.8238C146.277 24.3638 146.142 23.9968 145.87 23.7258C145.626 23.4538 145.165 23.2098 144.487 22.9928C143.835 22.7488 142.832 22.4778 141.475 22.1788C139.061 21.6908 137.324 20.9988 136.266 20.1038C135.235 19.2088 134.72 17.9738 134.72 16.4008C134.72 15.2068 135.072 14.1348 135.778 13.1848C136.483 12.2088 137.446 11.4628 138.667 10.9468C139.915 10.4048 141.326 10.1328 142.899 10.1328C144.039 10.1328 145.138 10.2828 146.196 10.5808C147.205 10.8311 148.167 11.2431 149.045 11.8008C149.913 12.3438 150.347 13.0628 150.347 13.9588C150.347 14.5008 150.198 14.9628 149.899 15.3418C149.601 15.6948 149.234 15.8718 148.8 15.8718C148.502 15.8718 148.203 15.8168 147.905 15.7088C147.548 15.5271 147.195 15.337 146.847 15.1388C146.06 14.7318 145.382 14.4338 144.812 14.2438C144.242 14.0268 143.537 13.9178 142.696 13.9178C141.692 13.9178 140.892 14.1218 140.295 14.5278C139.725 14.9348 139.44 15.4918 139.44 16.1968C139.44 16.8748 139.739 17.3908 140.336 17.7428C140.933 18.0958 142.086 18.4488 143.795 18.8018C145.613 19.1818 147.037 19.6148 148.068 20.1038C149.099 20.5918 149.831 21.2028 150.265 21.9348C150.727 22.6678 150.957 23.6038 150.957 24.7428C150.957 26.5878 150.184 28.0668 148.638 29.1788C147.118 30.2908 145.083 30.8468 142.533 30.8468Z" fill="#9C9C9C"/>
</svg>
