<svg width="16" height="16" viewBox="0 0 16 16" fill="none" xmlns="http://www.w3.org/2000/svg">
<path d="M12.334 4.333C12.334 3.6 11.734 3 11.001 3H9.668C9.301 3 9.001 3.3 9.001 3.666C9.001 4.033 9.301 4.333 9.668 4.333H11.001V6.1L8.681 9H6.334V6.333C6.334 5.966 6.034 5.666 5.668 5.666H3.667C3.31673 5.66587 2.96986 5.73476 2.64623 5.86875C2.32259 6.00273 2.02853 6.19917 1.78085 6.44685C1.53317 6.69453 1.33673 6.98859 1.20275 7.31223C1.06876 7.63586 0.999869 7.98273 1 8.333V9.666C1 10.033 1.3 10.333 1.667 10.333H2.333C2.333 11.44 3.227 12.333 4.333 12.333C5.44 12.333 6.333 11.44 6.333 10.333H8.68C9.087 10.333 9.467 10.146 9.72 9.833L12.04 6.933C12.233 6.693 12.333 6.399 12.333 6.1L12.334 4.333ZM4.334 11C4.15744 10.9992 3.98835 10.9286 3.86359 10.8037C3.73883 10.6788 3.66853 10.5096 3.668 10.333H5.001C5.001 10.7 4.701 11 4.334 11Z" fill="#9C9C9C"/>
<path d="M3.667 3.666H5.667C6.034 3.666 6.334 3.966 6.334 4.333C6.334 4.699 6.034 4.999 5.668 4.999H3.667C3.49044 4.99847 3.32124 4.92817 3.19629 4.80341C3.07135 4.67866 3.00079 4.50956 3 4.333C3 3.966 3.3 3.666 3.667 3.666ZM12.335 8.332C11.228 8.332 10.335 9.226 10.335 10.332C10.335 11.439 11.228 12.332 12.335 12.332C13.442 12.332 14.335 11.439 14.335 10.332C14.335 9.226 13.442 8.332 12.335 8.332ZM12.335 10.999C12.1583 10.9985 11.9889 10.928 11.8639 10.8031C11.739 10.6781 11.6685 10.5087 11.668 10.332C11.668 9.966 11.968 9.666 12.335 9.666C12.702 9.666 13.002 9.966 13.002 10.332C13.002 10.699 12.702 10.999 12.335 10.999Z" fill="#9C9C9C"/>
</svg>
