<svg width="32" height="32" viewBox="0 0 32 32" fill="none" xmlns="http://www.w3.org/2000/svg">
<path d="M25.9463 13.3331C25.8147 13.5275 25.7369 13.7531 25.7205 13.9872C25.7041 14.2213 25.7498 14.4556 25.8529 14.6664C26.1836 15.4384 26.4169 16.2491 26.5463 17.0798C26.8895 19.2266 26.5685 21.4271 25.6263 23.3864C25.5118 23.6013 25.3408 23.7808 25.1316 23.9054C24.9224 24.03 24.6831 24.0949 24.4396 24.0931H7.57293C7.32809 24.0936 7.08784 24.0267 6.87852 23.8997C6.6692 23.7727 6.49889 23.5905 6.38626 23.3731C5.53277 21.6417 5.16512 19.7111 5.32251 17.7872C5.4799 15.8633 6.15643 14.0181 7.27997 12.4484C8.40352 10.8787 9.93197 9.64337 11.7024 8.87402C13.4728 8.10466 15.4188 7.83015 17.3329 8.07976C18.3014 8.1936 19.2488 8.44502 20.1463 8.82643C20.3571 8.92959 20.5914 8.97529 20.8255 8.9589C21.0596 8.94251 21.2852 8.86462 21.4796 8.73309C21.6821 8.59969 21.8444 8.41357 21.949 8.19479C22.0536 7.97601 22.0965 7.73285 22.0732 7.49147C22.0499 7.2501 21.9612 7.01965 21.8167 6.82493C21.6721 6.63022 21.4772 6.47861 21.2529 6.38643C18.6772 5.28197 15.8189 5.01721 13.0841 5.62976C10.3494 6.24231 7.87712 7.70101 6.0186 9.79867C4.16009 11.8963 3.0098 14.5263 2.73113 17.3149C2.45246 20.1036 3.05959 22.9091 4.46626 25.3331C4.69894 25.7361 5.03305 26.0713 5.43537 26.3052C5.8377 26.5391 6.29423 26.6636 6.7596 26.6664H25.2263C25.6962 26.6683 26.1582 26.546 26.5656 26.3118C26.973 26.0777 27.3113 25.74 27.5463 25.3331C28.5761 23.5484 29.1783 21.5492 29.3055 19.4926C29.4328 17.436 29.0816 15.3778 28.2796 13.4798C28.178 13.2634 28.0202 13.0784 27.8226 12.944C27.625 12.8096 27.3949 12.7308 27.1563 12.7158C26.9178 12.7008 26.6797 12.7502 26.4668 12.8588C26.2539 12.9674 26.0741 13.1312 25.9463 13.3331Z" fill="url(#paint0_linear_202_337)"/>
<path d="M14.1197 16.7863C13.6193 17.2867 13.3382 17.9654 13.3382 18.673C13.3382 19.0234 13.4072 19.3703 13.5413 19.6941C13.6754 20.0178 13.8719 20.3119 14.1197 20.5597C14.3675 20.8074 14.6616 21.004 14.9853 21.138C15.309 21.2721 15.656 21.3411 16.0064 21.3411C16.714 21.3411 17.3927 21.06 17.893 20.5597L25.4397 9.23966L14.1197 16.7863Z" fill="url(#paint1_linear_202_337)"/>
<defs>
<linearGradient id="paint0_linear_202_337" x1="15.998" y1="5.30737" x2="15.998" y2="26.6664" gradientUnits="userSpaceOnUse">
<stop stop-color="#FFBF00"/>
<stop offset="1" stop-color="#F2A50C"/>
</linearGradient>
<linearGradient id="paint1_linear_202_337" x1="15.998" y1="5.30737" x2="15.998" y2="26.6664" gradientUnits="userSpaceOnUse">
<stop stop-color="#FFBF00"/>
<stop offset="1" stop-color="#F2A50C"/>
</linearGradient>
</defs>
</svg>
