<svg xmlns="http://www.w3.org/2000/svg" width="16" height="16" fill="none"><path fill="#9C9C9C" d="M12.334 4.333c0-.733-.6-1.333-1.333-1.333H9.668c-.367 0-.667.3-.667.666 0 .367.3.667.667.667h1.333V6.1L8.681 9H6.334V6.333c0-.367-.3-.667-.666-.667H3.667A2.666 2.666 0 0 0 1 8.333v1.333c0 .367.3.667.667.667h.666c0 1.107.894 2 2 2 1.107 0 2-.893 2-2H8.68c.407 0 .787-.187 1.04-.5l2.32-2.9c.193-.24.293-.534.293-.833l.001-1.767Zm-8 6.667a.67.67 0 0 1-.666-.667h1.333c0 .367-.3.667-.667.667Z"/><path fill="#9C9C9C" d="M3.667 3.666h2c.367 0 .667.3.667.667 0 .366-.3.666-.666.666H3.667A.669.669 0 0 1 3 4.333c0-.367.3-.667.667-.667Zm8.668 4.666c-1.107 0-2 .894-2 2 0 1.107.893 2 2 2s2-.893 2-2c0-1.106-.893-2-2-2Zm0 2.667a.67.67 0 0 1-.667-.667c0-.366.3-.666.667-.666.367 0 .667.3.667.666 0 .367-.3.667-.667.667Z"/></svg>