<svg xmlns="http://www.w3.org/2000/svg" width="32" height="32" fill="none"><path fill="url(#a)" d="M25.946 13.333a1.333 1.333 0 0 0-.093 1.333c.33.772.564 1.583.693 2.414a10.667 10.667 0 0 1-.92 6.306 1.334 1.334 0 0 1-1.186.707H7.573a1.333 1.333 0 0 1-1.187-.72A10.667 10.667 0 0 1 17.333 8.08c.968.114 1.916.365 2.813.746a1.333 1.333 0 0 0 1.334-.093 1.333 1.333 0 0 0-.227-2.347A13.333 13.333 0 0 0 4.466 25.333a2.667 2.667 0 0 0 2.294 1.333h18.466a2.666 2.666 0 0 0 2.32-1.333 13.333 13.333 0 0 0 .734-11.853 1.333 1.333 0 0 0-2.334-.147Z"/><path fill="url(#b)" d="M14.12 16.786a2.668 2.668 0 0 0 3.773 3.774L25.44 9.24l-11.32 7.546Z"/><defs><linearGradient id="a" x1="15.998" x2="15.998" y1="5.307" y2="26.666" gradientUnits="userSpaceOnUse"><stop stop-color="#FFBF00"/><stop offset="1" stop-color="#F2A50C"/></linearGradient><linearGradient id="b" x1="15.998" x2="15.998" y1="5.307" y2="26.666" gradientUnits="userSpaceOnUse"><stop stop-color="#FFBF00"/><stop offset="1" stop-color="#F2A50C"/></linearGradient></defs></svg>