<svg width="18" height="10" viewBox="0 0 18 10" fill="none" xmlns="http://www.w3.org/2000/svg">
<path d="M11.8086 0.330853C12.1779 -0.0795617 12.8101 -0.112582 13.2207 0.256634L17.6689 4.25663C17.8796 4.44627 18 4.71633 18 4.9998C18 5.28327 17.8796 5.55333 17.6689 5.74296L13.2207 9.74296C12.8101 10.1122 12.1779 10.0792 11.8086 9.66874C11.4394 9.25824 11.4726 8.62599 11.8828 8.25663L14.3926 5.9998H1C0.447715 5.9998 0 5.55208 0 4.9998C0 4.44751 0.447715 3.9998 1 3.9998H14.3926L11.8828 1.74296C11.4726 1.37361 11.4394 0.741358 11.8086 0.330853Z" fill="#332200"/>
</svg>
