<svg width="32" height="32" viewBox="0 0 32 32" fill="none" xmlns="http://www.w3.org/2000/svg">
<path d="M8.06701 10.7332C6.32138 12.4791 5.33851 14.8455 5.33352 17.3144C5.32852 19.7833 6.3018 22.1536 8.04034 23.9065C10.0003 19.3732 13.4937 15.5865 17.8537 13.3332C14.0904 16.5174 11.5501 20.91 10.667 25.7599C14.1337 27.3999 18.4003 26.7999 21.267 23.9332C25.2537 19.9465 26.3737 9.07988 26.6137 6.09321C26.622 5.99831 26.6095 5.90273 26.5769 5.8132C26.5444 5.72367 26.4926 5.64236 26.4252 5.575C26.3579 5.50764 26.2765 5.45585 26.187 5.42329C26.0975 5.39073 26.0019 5.37819 25.907 5.38655C22.9203 5.62655 12.0537 6.74655 8.06701 10.7332Z" fill="url(#paint0_linear_202_313)"/>
<defs>
<linearGradient id="paint0_linear_202_313" x1="15.9748" y1="5.38403" x2="15.9748" y2="26.6591" gradientUnits="userSpaceOnUse">
<stop stop-color="#FFBF00"/>
<stop offset="1" stop-color="#F2A50C"/>
</linearGradient>
</defs>
</svg>
