<svg width="119" height="35" viewBox="0 0 119 35" fill="none" xmlns="http://www.w3.org/2000/svg">
<path d="M7.99212 0.735962V27.76H20.9521L20.1361 34H0.120117V0.735962H7.99212Z" fill="#141414"/>
<path d="M45.3864 34H38.8104L38.4744 30.784C36.6184 33.472 34.0424 34.816 30.7464 34.816C28.4104 34.816 26.6344 34.112 25.4184 32.704C24.2344 31.296 23.6424 29.328 23.6424 26.8V8.51196H31.2264V25.84C31.2264 27.088 31.4184 27.968 31.8024 28.48C32.2184 28.96 32.8424 29.2 33.6744 29.2C35.2744 29.2 36.6504 28.208 37.8024 26.224V8.51196H45.3864V34Z" fill="#141414"/>
<path d="M62.3911 7.69596C64.1511 7.69596 65.7351 7.95196 67.1431 8.46396C68.5511 8.97596 69.8791 9.75996 71.1271 10.816L67.8631 15.328C66.2631 14.112 64.6471 13.504 63.0151 13.504C61.3191 13.504 60.0391 14.128 59.1751 15.376C58.3111 16.624 57.8791 18.64 57.8791 21.424C57.8791 24.112 58.3111 26.016 59.1751 27.136C60.0391 28.256 61.2871 28.816 62.9191 28.816C63.7831 28.816 64.5671 28.688 65.2711 28.432C65.9751 28.144 66.8231 27.696 67.8151 27.088L71.1271 31.792C68.5991 33.808 65.7351 34.816 62.5351 34.816C59.9431 34.816 57.7031 34.272 55.8151 33.184C53.9271 32.064 52.4711 30.512 51.4471 28.528C50.4231 26.512 49.9111 24.16 49.9111 21.472C49.9111 18.784 50.4231 16.4 51.4471 14.32C52.4711 12.24 53.9271 10.624 55.8151 9.47196C57.7031 8.28796 59.8951 7.69596 62.3911 7.69596Z" fill="#141414"/>
<path d="M94.1071 26.608C94.1071 27.568 94.2351 28.272 94.4911 28.72C94.7791 29.168 95.2271 29.504 95.8351 29.728L94.2511 34.672C92.6831 34.544 91.4031 34.208 90.4111 33.664C89.4191 33.088 88.6511 32.192 88.1071 30.976C86.4431 33.536 83.8831 34.816 80.4271 34.816C77.8991 34.816 75.8831 34.08 74.3791 32.608C72.8751 31.136 72.1231 29.216 72.1231 26.848C72.1231 24.064 73.1471 21.936 75.1951 20.464C77.2431 18.992 80.2031 18.256 84.0751 18.256H86.6671V17.152C86.6671 15.648 86.3471 14.624 85.7071 14.08C85.0671 13.504 83.9471 13.216 82.3471 13.216C81.5151 13.216 80.5071 13.344 79.3231 13.6C78.1391 13.824 76.9231 14.144 75.6751 14.56L73.9471 9.56796C75.5471 8.95996 77.1791 8.49596 78.8431 8.17596C80.5391 7.85596 82.1071 7.69596 83.5471 7.69596C87.1951 7.69596 89.8671 8.44796 91.5631 9.95196C93.2591 11.456 94.1071 13.712 94.1071 16.72V26.608ZM82.6351 29.392C84.3631 29.392 85.7071 28.576 86.6671 26.944V22.432H84.7951C83.0671 22.432 81.7711 22.736 80.9071 23.344C80.0751 23.952 79.6591 24.896 79.6591 26.176C79.6591 27.2 79.9151 28 80.4271 28.576C80.9711 29.12 81.7071 29.392 82.6351 29.392Z" fill="#141414"/>
<path d="M108.655 7.69596C110.479 7.69596 112.191 7.96796 113.791 8.51196C115.391 9.05596 116.799 9.82396 118.015 10.816L115.231 15.088C113.151 13.776 111.055 13.12 108.943 13.12C107.951 13.12 107.183 13.296 106.639 13.648C106.127 13.968 105.871 14.432 105.871 15.04C105.871 15.52 105.983 15.92 106.207 16.24C106.463 16.528 106.959 16.832 107.695 17.152C108.431 17.472 109.567 17.856 111.103 18.304C113.759 19.072 115.727 20.08 117.007 21.328C118.319 22.544 118.975 24.24 118.975 26.416C118.975 28.144 118.479 29.648 117.487 30.928C116.495 32.176 115.135 33.136 113.407 33.808C111.679 34.48 109.759 34.816 107.647 34.816C105.503 34.816 103.503 34.48 101.647 33.808C99.8232 33.136 98.2712 32.208 96.9912 31.024L100.687 26.896C102.831 28.56 105.087 29.392 107.455 29.392C108.607 29.392 109.503 29.184 110.143 28.768C110.815 28.352 111.151 27.76 111.151 26.992C111.151 26.384 111.023 25.904 110.767 25.552C110.511 25.2 110.015 24.88 109.279 24.592C108.543 24.272 107.375 23.888 105.775 23.44C103.247 22.704 101.359 21.68 100.111 20.368C98.8632 19.056 98.2392 17.424 98.2392 15.472C98.2392 14 98.6552 12.688 99.4872 11.536C100.351 10.352 101.567 9.42396 103.135 8.75196C104.735 8.04796 106.575 7.69596 108.655 7.69596Z" fill="#141414"/>
</svg>
